<svg width="627" height="477" viewBox="0 0 627 477" fill="none" xmlns="http://www.w3.org/2000/svg">
<path d="M179.244 108.43C179.415 118.287 177.799 127.743 174.396 136.799C170.99 145.732 166.41 154.192 160.655 162.18C155.02 170.042 148.517 177.365 141.145 184.149C133.893 190.807 126.507 196.851 118.989 202.281L177.176 201.268L174.095 278.225L1.63984 275.312L0.468617 208.042C6.93619 205.711 13.7032 202.943 20.7695 199.739C27.9565 196.41 34.9518 192.653 41.7554 188.467C48.6819 184.279 55.1701 179.607 61.22 174.448C67.3928 169.288 72.76 163.71 77.3219 157.715C82.0043 151.595 85.6348 145 88.2132 137.93C90.9144 130.858 92.1942 123.256 92.0526 115.125C91.9711 110.443 91.0399 106.33 89.2591 102.787C87.601 99.2423 85.2785 96.3249 82.2915 94.0353C79.3024 91.6225 75.8341 89.8958 71.8865 88.8554C68.0596 87.6896 63.9365 87.1452 59.5172 87.2221C55.8344 87.2862 52.0978 87.7826 48.3073 88.7113C44.5147 89.5168 40.7899 90.6909 37.1329 92.2334C33.4759 93.776 30.0094 95.685 26.7336 97.9604C23.5783 100.11 20.7353 102.563 18.2046 105.319L0.7392 33.156C5.20189 28.5184 10.3526 24.6082 16.1914 21.4254C22.0301 18.2427 28.1865 15.6707 34.6605 13.7093C41.1324 11.6248 47.7367 10.0925 54.4734 9.11249C61.2101 8.1325 67.8315 7.58586 74.3377 7.47259C88.8231 7.22038 102.373 9.63421 114.986 14.714C127.598 19.6706 138.587 26.689 147.955 35.7691C157.443 44.7238 164.936 55.4387 170.434 67.9138C176.054 80.3867 178.99 93.8922 179.244 108.43Z" fill="#00FF0A"/>
<path d="M419.296 26.6081L349.535 145.766L416.186 249.978L339.635 275.343L301.559 204.279L263.841 280.73L183.792 253.285L249.688 144.916L185.984 40.6529L269.965 18.8557L301.328 85.2304L332.203 17.7721L419.296 26.6081Z" fill="#00FF0A"/>
<path d="M605.337 101.012C605.509 110.868 603.893 120.324 600.49 129.38C597.084 138.313 592.504 146.773 586.749 154.761C581.114 162.624 574.611 169.946 567.238 176.73C559.986 183.388 552.601 189.432 545.082 194.863L603.27 193.85L600.189 270.807L427.734 267.893L426.562 200.623C433.03 198.292 439.797 195.525 446.863 192.321C454.05 188.991 461.046 185.234 467.849 181.048C474.776 176.861 481.264 172.188 487.314 167.03C493.486 161.869 498.854 156.291 503.416 150.296C508.098 144.176 511.729 137.581 514.307 130.511C517.008 123.439 518.288 115.838 518.146 107.706C518.065 103.024 517.134 98.9119 515.353 95.3688C513.695 91.8237 511.372 88.9063 508.385 86.6167C505.396 84.2039 501.928 82.4772 497.98 81.4368C494.153 80.271 490.03 79.7266 485.611 79.8035C481.928 79.8676 478.192 80.364 474.401 81.2927C470.608 82.0982 466.884 83.2723 463.227 84.8148C459.57 86.3574 456.103 88.2664 452.827 90.5418C449.672 92.6919 446.829 95.1446 444.298 97.9L426.833 25.7374C431.296 21.0998 436.446 17.1896 442.285 14.0068C448.124 10.8241 454.28 8.25208 460.754 6.29072C467.226 4.20616 473.83 2.67387 480.567 1.69388C487.304 0.713895 493.925 0.167258 500.431 0.053981C514.917 -0.198222 528.466 2.2156 541.08 7.29542C553.691 12.252 564.681 19.2704 574.049 28.3505C583.537 37.3052 591.03 48.0201 596.527 60.4952C602.148 72.9681 605.084 86.4736 605.337 101.012Z" fill="#00FF0A"/>
<path d="M166.907 316.589L159.858 473.277L111.453 476.253L110.441 393.721L89.7157 460.633L71.0187 460.959L53.198 401.757L54.1885 470.851L5.13476 473.198L4.69398 325.812L59.2606 322.729L82.1611 392.934L109.753 317.584L166.907 316.589Z" fill="#00FF0A"/>
<path d="M294.531 383.691C294.638 389.875 294.321 396.066 293.579 402.265C281.482 403.257 269.464 404.746 257.526 406.732C245.587 408.646 233.648 410.56 221.709 412.475C223.639 417.56 226.579 421.598 230.527 424.586C234.546 427.574 239.283 429.02 244.736 428.925C247.569 428.876 250.64 428.289 253.95 427.165C257.331 426.039 260.672 424.666 263.974 423.044C267.274 421.351 270.431 419.554 273.444 417.653C276.457 415.752 279.048 414.036 281.218 412.505L276.961 460.999C274.237 463.18 271.258 465.045 268.026 466.594C264.865 468.142 261.558 469.409 258.104 470.393C254.649 471.378 251.155 472.114 247.622 472.602C244.088 473.09 240.621 473.364 237.222 473.423C230.211 473.545 223.785 472.697 217.944 470.879C212.103 469.061 206.78 466.487 201.976 463.158C197.241 459.757 193.062 455.741 189.439 451.111C185.816 446.482 182.788 441.415 180.355 435.912C177.921 430.408 176.048 424.575 174.737 418.412C173.425 412.249 172.714 406.004 172.604 399.678C172.489 393.068 172.976 386.447 174.065 379.815C175.154 373.184 176.849 366.791 179.15 360.636C181.523 354.48 184.505 348.776 188.097 343.523C191.759 338.197 196.035 333.537 200.925 329.541C205.814 325.546 211.356 322.392 217.55 320.08C223.815 317.766 230.736 316.544 238.314 316.412C244.617 316.302 250.369 317.091 255.57 318.778C260.841 320.392 265.521 322.728 269.613 325.786C273.774 328.771 277.379 332.37 280.427 336.583C283.547 340.794 286.107 345.442 288.109 350.527C290.18 355.539 291.725 360.88 292.745 366.551C293.834 372.149 294.429 377.862 294.531 383.691ZM251.941 378.886C251.906 376.896 251.659 374.874 251.198 372.82C250.736 370.695 249.994 368.788 248.973 367.1C248.022 365.41 246.759 364.045 245.182 363.006C243.604 361.896 241.647 361.361 239.31 361.402C236.477 361.451 233.976 362.277 231.808 363.879C229.709 365.409 227.901 367.36 226.384 369.732C224.866 372.034 223.634 374.544 222.69 377.262C221.745 379.981 221.045 382.482 220.589 384.765L251.982 381.232L251.941 378.886Z" fill="#00FF0A"/>
<path d="M421.93 382.966C422.103 392.917 420.984 401.86 418.572 409.794C416.159 417.728 412.705 424.792 408.208 430.985C403.78 437.105 398.452 442.353 392.223 446.728C385.994 451.102 379.151 454.741 371.692 457.644C364.232 460.475 356.263 462.605 347.787 464.032C339.381 465.459 330.717 466.249 321.793 466.405C318.465 466.463 315.206 466.448 312.016 466.362C308.825 466.204 305.563 465.976 302.228 465.679L302.785 326.808C310.532 324.184 318.505 322.304 326.703 321.165C334.971 319.955 343.177 319.279 351.321 319.137C361.449 318.961 370.787 320.22 379.335 322.915C387.883 325.611 395.286 329.677 401.544 335.114C407.801 340.48 412.7 347.185 416.24 355.228C419.85 363.2 421.747 372.446 421.93 382.966ZM350.404 425.165C354.643 424.452 358.48 423.105 361.917 421.126C365.423 419.074 368.427 416.604 370.927 413.716C373.426 410.758 375.316 407.454 376.599 403.806C377.951 400.085 378.591 396.163 378.519 392.04C378.449 387.989 377.958 384.229 377.048 380.761C376.136 377.222 374.702 374.189 372.745 371.664C370.787 369.067 368.237 367.049 365.095 365.611C361.951 364.101 358.112 363.315 353.577 363.252L350.404 425.165Z" fill="#00FF0A"/>
<path d="M482.937 316.419L478.029 461.765L433.239 464.891L426.473 320.388L482.937 316.419Z" fill="#00FF0A"/>
<path d="M626.362 454.916L573.789 462.657L566.996 438.672L542.775 439.094L537.882 463.282L483.611 458.895L523.419 316.141L582.432 312.127L626.362 454.916ZM562.603 406.113L553.884 369.15L546.668 406.39L562.603 406.113Z" fill="#00FF0A"/>
</svg>
