<svg width="85" height="78" viewBox="0 0 85 78" fill="none" xmlns="http://www.w3.org/2000/svg">
<path id="Vector" d="M85 39C85 42.8271 73.3679 44.8377 72.2026 48.2909C70.9944 51.8706 79.1335 60.0693 76.8823 63.0485C74.6067 66.0571 63.9748 61.1291 60.8489 63.3164C57.7229 65.5037 59.3532 76.7493 55.6339 77.9121C52.0461 79.0337 46.4762 69.0511 42.5 69.0511C38.5238 69.0511 32.9539 79.0337 29.3661 77.9121C25.6468 76.7493 27.2465 65.486 24.1511 63.3164C21.0252 61.1262 10.3933 66.0571 8.11767 63.0485C5.86344 60.0693 14.0056 51.8706 12.7974 48.2909C11.6321 44.8377 0 42.8271 0 39C0 35.173 11.6321 33.1623 12.7974 29.7091C13.9628 26.256 5.8665 17.9307 8.11767 14.9515C10.3933 11.9429 21.0252 16.8709 24.1511 14.6836C27.2465 12.514 25.6468 1.25073 29.3661 0.0879012C32.9539 -1.03371 38.5238 8.94899 42.5 8.94899C46.4762 8.94899 52.0461 -1.03371 55.6339 0.0879012C59.3532 1.25073 57.7535 12.514 60.8489 14.6836C63.9748 16.8739 74.6067 11.9429 76.8823 14.9515C79.1366 17.9307 70.9944 26.1294 72.2026 29.7091C73.3679 33.1623 85 35.173 85 39Z" fill="#E8F92A"/>
</svg>
