<svg width="39" height="39" viewBox="0 0 39 39" fill="none" xmlns="http://www.w3.org/2000/svg">
<g clip-path="url(#clip0_1777_626)">
<path d="M19.5 25.9746C23.0758 25.9746 25.9746 23.0758 25.9746 19.5C25.9746 15.9242 23.0758 13.0254 19.5 13.0254C15.9242 13.0254 13.0254 15.9242 13.0254 19.5C13.0254 23.0758 15.9242 25.9746 19.5 25.9746Z" fill="white"/>
<path d="M10.9426 17.6271C11.8027 13.694 15.3126 10.7402 19.5001 10.7402H36.9329C36.0079 8.90396 34.7848 7.20754 33.2887 5.71137C29.6056 2.02838 24.7087 0 19.5001 0C14.2915 0 9.3946 2.02838 5.71146 5.71137C5.35726 6.06557 5.01875 6.43119 4.69556 6.80702L10.9426 17.6271Z" fill="white"/>
<path d="M22.1569 27.8474C21.3185 28.1148 20.4259 28.2597 19.5 28.2597C16.2461 28.2597 13.4011 26.4762 11.8906 23.8355C11.8798 23.8188 11.869 23.8022 11.859 23.7848L3.20006 8.78711C1.11828 11.9406 0 15.6342 0 19.4999C0 24.7086 2.02838 29.6054 5.71137 33.2886C8.533 36.1101 12.0674 37.9591 15.9082 38.6704L22.1569 27.8474Z" fill="white"/>
<path d="M25.3942 13.0254C27.1539 14.6287 28.2599 16.9376 28.2599 19.5C28.2599 21.1116 27.8219 22.6227 27.0594 23.9213C27.0516 23.9363 27.0449 23.9514 27.0365 23.9661L18.3757 38.9671C18.7487 38.9881 19.1235 39 19.5001 39C24.7087 39 29.6056 36.9716 33.2887 33.2886C36.9717 29.6055 39.0001 24.7086 39.0001 19.5C39.0001 17.2601 38.624 15.0782 37.9035 13.0254H25.3942Z" fill="white"/>
</g>
<defs>
<clipPath id="clip0_1777_626">
<rect width="39" height="39" fill="white"/>
</clipPath>
</defs>
</svg>
