<svg width="87" height="74" viewBox="0 0 87 74" fill="none" xmlns="http://www.w3.org/2000/svg">
<path d="M25.7056 15.082C25.7056 16.4362 25.4601 17.7311 24.9692 18.9668C24.4784 20.1855 23.8267 21.3366 23.0142 22.4199C22.2186 23.4863 21.3045 24.4766 20.272 25.3906C19.2563 26.2878 18.2238 27.1003 17.1743 27.8281H25.1978L24.5884 38.3906L0.822754 37.5781V28.3359C1.71989 28.0312 2.65934 27.6673 3.64111 27.2441C4.63981 26.804 5.61312 26.3047 6.56104 25.7461C7.52588 25.1875 8.43148 24.5612 9.27783 23.8672C10.1411 23.1732 10.8944 22.4199 11.5376 21.6074C12.1978 20.778 12.714 19.8809 13.0864 18.916C13.4757 17.9512 13.6704 16.9102 13.6704 15.793C13.6704 15.1497 13.5519 14.5827 13.3149 14.0918C13.0949 13.6009 12.7817 13.1947 12.3755 12.873C11.9692 12.5345 11.4953 12.2891 10.9536 12.1367C10.4289 11.9674 9.86182 11.8828 9.25244 11.8828C8.74463 11.8828 8.22835 11.9421 7.70361 12.0605C7.17887 12.1621 6.6626 12.3145 6.15479 12.5176C5.64697 12.7207 5.16455 12.9746 4.70752 13.2793C4.26742 13.5671 3.86963 13.8971 3.51416 14.2695L1.27979 4.31641C1.90609 3.6901 2.62549 3.16536 3.43799 2.74219C4.25049 2.31901 5.10531 1.98047 6.00244 1.72656C6.89958 1.45573 7.81364 1.26107 8.74463 1.14258C9.67562 1.02409 10.5897 0.964844 11.4868 0.964844C13.4842 0.964844 15.3462 1.32878 17.0728 2.05664C18.7993 2.76758 20.2974 3.75781 21.5669 5.02734C22.8534 6.27995 23.8605 7.76953 24.5884 9.49609C25.3332 11.2227 25.7056 13.0846 25.7056 15.082ZM58.9927 4.41797L49.0903 20.6172L58.0278 35.0898L47.4146 38.3906L42.3364 28.5391L36.9536 38.9492L25.9849 34.9883L35.3286 20.2617L26.7974 5.78906L38.4263 2.99609L42.5903 12.1875L47.0083 2.99609L58.9927 4.41797ZM84.4595 15.082C84.4595 16.4362 84.214 17.7311 83.7231 18.9668C83.2323 20.1855 82.5806 21.3366 81.7681 22.4199C80.9725 23.4863 80.0584 24.4766 79.0259 25.3906C78.0103 26.2878 76.9777 27.1003 75.9282 27.8281H83.9517L83.3423 38.3906L59.5767 37.5781V28.3359C60.4738 28.0312 61.4132 27.6673 62.395 27.2441C63.3937 26.804 64.367 26.3047 65.3149 25.7461C66.2798 25.1875 67.1854 24.5612 68.0317 23.8672C68.895 23.1732 69.6483 22.4199 70.2915 21.6074C70.9517 20.778 71.4679 19.8809 71.8403 18.916C72.2297 17.9512 72.4243 16.9102 72.4243 15.793C72.4243 15.1497 72.3058 14.5827 72.0688 14.0918C71.8488 13.6009 71.5356 13.1947 71.1294 12.873C70.7231 12.5345 70.2492 12.2891 69.7075 12.1367C69.1828 11.9674 68.6157 11.8828 68.0063 11.8828C67.4985 11.8828 66.9823 11.9421 66.4575 12.0605C65.9328 12.1621 65.4165 12.3145 64.9087 12.5176C64.4009 12.7207 63.9185 12.9746 63.4614 13.2793C63.0213 13.5671 62.6235 13.8971 62.2681 14.2695L60.0337 4.31641C60.66 3.6901 61.3794 3.16536 62.1919 2.74219C63.0044 2.31901 63.8592 1.98047 64.7563 1.72656C65.6535 1.45573 66.5675 1.26107 67.4985 1.14258C68.4295 1.02409 69.3436 0.964844 70.2407 0.964844C72.2381 0.964844 74.1001 1.32878 75.8267 2.05664C77.5532 2.76758 79.0513 3.75781 80.3208 5.02734C81.6073 6.27995 82.6144 7.76953 83.3423 9.49609C84.0871 11.2227 84.4595 13.0846 84.4595 15.082Z" fill="white"/>
<path d="M23.5054 43.6426L22.1577 65.1465L15.478 65.4395L15.5366 54.1016L12.519 63.2422H9.94092L7.62646 55.0684L7.59717 64.5605L0.82959 64.7656L1.12256 44.5215L8.65186 44.2285L11.6401 53.9258L15.6245 43.6426H23.5054ZM40.937 53.1641C40.937 54.0137 40.8784 54.8633 40.7612 55.7129C39.0913 55.8203 37.4312 55.9961 35.7808 56.2402C34.1304 56.4746 32.48 56.709 30.8296 56.9434C31.0835 57.6465 31.479 58.208 32.0161 58.6279C32.563 59.0479 33.2124 59.2578 33.9644 59.2578C34.355 59.2578 34.7798 59.1846 35.2388 59.0381C35.7075 58.8916 36.1714 58.7109 36.6304 58.4961C37.0894 58.2715 37.5288 58.0322 37.9487 57.7783C38.3687 57.5244 38.73 57.2949 39.0327 57.0898L38.3296 63.7402C37.9487 64.0332 37.5337 64.2822 37.0845 64.4873C36.645 64.6924 36.186 64.8584 35.7075 64.9854C35.229 65.1123 34.7456 65.2051 34.2573 65.2637C33.769 65.3223 33.2905 65.3516 32.8218 65.3516C31.855 65.3516 30.9712 65.2197 30.1704 64.9561C29.3696 64.6924 28.6421 64.3262 27.9878 63.8574C27.3433 63.3789 26.7769 62.8174 26.2886 62.1729C25.8003 61.5283 25.395 60.8252 25.0728 60.0635C24.7505 59.3018 24.5063 58.4961 24.3403 57.6465C24.1743 56.7969 24.0913 55.9375 24.0913 55.0684C24.0913 54.1602 24.1743 53.252 24.3403 52.3438C24.5063 51.4355 24.7554 50.5615 25.0874 49.7217C25.4292 48.8818 25.854 48.1055 26.3618 47.3926C26.8794 46.6699 27.48 46.04 28.1636 45.5029C28.8472 44.9658 29.6187 44.5459 30.478 44.2432C31.3472 43.9404 32.3042 43.7891 33.3491 43.7891C34.2183 43.7891 35.0093 43.9111 35.7222 44.1553C36.4448 44.3896 37.0845 44.7217 37.6411 45.1514C38.2075 45.5713 38.6958 46.0742 39.106 46.6602C39.5259 47.2461 39.8677 47.8906 40.1313 48.5938C40.4048 49.2871 40.605 50.0244 40.7319 50.8057C40.8687 51.5771 40.937 52.3633 40.937 53.1641ZM35.0776 52.4023C35.0776 52.1289 35.0483 51.8506 34.9897 51.5674C34.9312 51.2744 34.8335 51.0107 34.6968 50.7764C34.5698 50.542 34.3989 50.3516 34.1841 50.2051C33.9692 50.0488 33.7007 49.9707 33.3784 49.9707C32.9878 49.9707 32.6411 50.0781 32.3384 50.293C32.0454 50.498 31.7915 50.7617 31.5767 51.084C31.3618 51.3965 31.186 51.7383 31.0493 52.1094C30.9126 52.4805 30.8101 52.8223 30.7417 53.1348L35.0776 52.7246V52.4023ZM58.5005 53.3691C58.5005 54.7363 58.3247 55.9619 57.9731 57.0459C57.6216 58.1299 57.1284 59.0918 56.4937 59.9316C55.8687 60.7617 55.1216 61.4697 54.2524 62.0557C53.3833 62.6416 52.4312 63.125 51.396 63.5059C50.3608 63.877 49.2573 64.1504 48.0854 64.3262C46.9233 64.502 45.7271 64.5898 44.4966 64.5898C44.0376 64.5898 43.5884 64.5801 43.1489 64.5605C42.7095 64.5312 42.2603 64.4922 41.8013 64.4434L42.2114 45.3711C43.2856 45.0293 44.3892 44.79 45.522 44.6533C46.6646 44.5068 47.7974 44.4336 48.9204 44.4336C50.3169 44.4336 51.6011 44.6289 52.7729 45.0195C53.9448 45.4102 54.9556 45.9863 55.8052 46.748C56.6548 47.5 57.314 48.4326 57.7827 49.5459C58.2612 50.6494 58.5005 51.9238 58.5005 53.3691ZM48.5396 58.9941C49.1255 58.9062 49.6577 58.7305 50.1362 58.4668C50.6245 58.1934 51.0444 57.8613 51.396 57.4707C51.7476 57.0703 52.0161 56.6211 52.2017 56.123C52.397 55.6152 52.4946 55.0781 52.4946 54.5117C52.4946 53.9551 52.436 53.4375 52.3188 52.959C52.2017 52.4707 52.0112 52.0508 51.7476 51.6992C51.4839 51.3379 51.1372 51.0547 50.7075 50.8496C50.2778 50.6348 49.7505 50.5176 49.1255 50.498L48.5396 58.9941ZM67.0698 44.375L66.0444 64.3262L59.8628 64.6484L59.2769 44.7852L67.0698 44.375ZM86.5083 63.7402L79.2427 64.6777L78.3638 61.3672H75.0239L74.2915 64.6777L66.8208 63.9453L72.6509 44.4336L80.7954 44.0234L86.5083 63.7402ZM77.8364 56.8848L76.7231 51.7871L75.6392 56.8848H77.8364Z" fill="white"/>
</svg>
