<svg width="523" height="393" viewBox="0 0 523 393" fill="none" xmlns="http://www.w3.org/2000/svg">
<path d="M151.878 86.0502C151.878 94.3044 150.379 102.198 147.383 109.73C144.387 117.158 140.409 124.174 135.45 130.778C130.594 137.278 125.015 143.314 118.712 148.885C112.513 154.354 106.211 159.306 99.8052 163.743H148.778L145.059 228.126L0 223.173V166.838C5.47586 164.981 11.21 162.763 17.2025 160.183C23.2982 157.501 29.239 154.457 35.0248 151.052C40.914 147.647 46.4415 143.83 51.6074 139.599C56.8766 135.369 61.4742 130.778 65.4003 125.825C69.4297 120.77 72.5809 115.301 74.8539 109.42C77.2302 103.539 78.4184 97.1934 78.4184 90.3837C78.4184 86.4629 77.6952 83.0065 76.2487 80.0143C74.9056 77.0222 72.9942 74.5459 70.5146 72.5855C68.0349 70.522 65.142 69.0259 61.8359 68.0973C58.633 67.0655 55.1718 66.5496 51.4524 66.5496C48.3529 66.5496 45.2016 66.9108 41.9988 67.633C38.7959 68.2521 35.6447 69.1807 32.5452 70.4188C29.4456 71.6569 26.5011 73.2046 23.7115 75.0618C21.0252 76.8158 18.5973 78.8278 16.4276 81.0977L2.78959 20.4292C6.61236 16.6116 11.0034 13.4131 15.9626 10.8337C20.9219 8.25422 26.1395 6.19066 31.6153 4.643C37.0912 2.99215 42.6704 1.80561 48.3529 1.08337C54.0353 0.361122 59.6145 0 65.0904 0C77.2819 0 88.6469 2.21832 99.1853 6.65496C109.724 10.9884 118.867 17.0243 126.616 24.7627C134.468 32.3978 140.616 41.4774 145.059 52.0016C149.605 62.5257 151.878 73.8753 151.878 86.0502Z" fill="white"/>
<path d="M355.053 21.0483L294.611 119.789L349.163 208.006L284.383 228.126L253.388 168.077L220.532 231.531L153.582 207.387L210.614 117.623L158.542 29.4057L229.521 12.3813L254.937 68.4068L281.903 12.3813L355.053 21.0483Z" fill="white"/>
<path d="M510.495 86.0502C510.495 94.3044 508.996 102.198 506 109.73C503.004 117.158 499.026 124.174 494.067 130.778C489.211 137.278 483.632 143.314 477.329 148.885C471.13 154.354 464.828 159.306 458.422 163.743H507.395L503.676 228.126L358.617 223.173V166.838C364.093 164.981 369.827 162.763 375.819 160.183C381.915 157.501 387.856 154.457 393.642 151.052C399.531 147.647 405.058 143.83 410.224 139.599C415.494 135.369 420.091 130.778 424.017 125.825C428.047 120.77 431.198 115.301 433.471 109.42C435.847 103.539 437.035 97.1934 437.035 90.3837C437.035 86.4629 436.312 83.0065 434.866 80.0143C433.523 77.0222 431.611 74.5459 429.132 72.5855C426.652 70.522 423.759 69.0259 420.453 68.0973C417.25 67.0655 413.789 66.5496 410.069 66.5496C406.97 66.5496 403.819 66.9108 400.616 67.633C397.413 68.2521 394.262 69.1807 391.162 70.4188C388.063 71.6569 385.118 73.2046 382.328 75.0618C379.642 76.8158 377.214 78.8278 375.045 81.0977L361.407 20.4292C365.229 16.6116 369.62 13.4131 374.58 10.8337C379.539 8.25422 384.756 6.19066 390.232 4.643C395.708 2.99215 401.287 1.80561 406.97 1.08337C412.652 0.361122 418.232 0 423.707 0C435.899 0 447.264 2.21832 457.802 6.65496C468.341 10.9884 477.484 17.0243 485.233 24.7627C493.085 32.3978 499.233 41.4774 503.676 52.0016C508.222 62.5257 510.495 73.8753 510.495 86.0502Z" fill="white"/>
<path d="M138.448 260.139L130.222 391.214L89.4516 393L89.8092 323.891L71.3908 379.607H55.6547L41.5279 329.784L41.3491 387.643L0.0417246 388.893L1.82992 265.496L47.7866 263.71L66.0262 322.819L90.3457 260.139H138.448Z" fill="white"/>
<path d="M244.846 318.176C244.846 323.355 244.488 328.534 243.773 333.712C233.58 334.367 223.447 335.439 213.374 336.927C203.3 338.355 193.227 339.784 183.153 341.213C184.703 345.499 187.117 348.921 190.395 351.481C193.733 354.04 197.697 355.32 202.287 355.32C204.671 355.32 207.264 354.874 210.065 353.981C212.927 353.088 215.758 351.987 218.559 350.677C221.361 349.308 224.043 347.85 226.606 346.302C229.169 344.754 231.375 343.356 233.223 342.106L228.931 382.643C226.606 384.428 224.073 385.946 221.331 387.196C218.649 388.446 215.847 389.458 212.927 390.232C210.006 391.006 207.055 391.571 204.075 391.929C201.095 392.286 198.174 392.464 195.313 392.464C189.412 392.464 184.017 391.661 179.13 390.053C174.242 388.446 169.801 386.214 165.808 383.357C161.874 380.44 158.416 377.017 155.436 373.089C152.456 369.16 149.982 364.874 148.015 360.231C146.048 355.588 144.558 350.677 143.545 345.499C142.531 340.32 142.025 335.082 142.025 329.784C142.025 324.248 142.531 318.712 143.545 313.176C144.558 307.64 146.078 302.313 148.104 297.194C150.191 292.074 152.784 287.342 155.883 282.997C159.042 278.592 162.708 274.752 166.881 271.478C171.053 268.205 175.762 265.645 181.007 263.8C186.312 261.954 192.154 261.032 198.532 261.032C203.837 261.032 208.665 261.776 213.016 263.264C217.427 264.693 221.331 266.716 224.729 269.336C228.186 271.895 231.166 274.961 233.67 278.532C236.233 282.104 238.319 286.032 239.928 290.318C241.597 294.545 242.819 299.039 243.594 303.801C244.429 308.503 244.846 313.295 244.846 318.176ZM209.082 313.533C209.082 311.867 208.903 310.17 208.546 308.444C208.188 306.658 207.592 305.051 206.757 303.622C205.982 302.194 204.939 301.033 203.628 300.14C202.317 299.188 200.677 298.711 198.71 298.711C196.326 298.711 194.21 299.366 192.362 300.676C190.574 301.926 189.024 303.533 187.713 305.497C186.402 307.402 185.329 309.486 184.494 311.748C183.66 314.009 183.034 316.093 182.617 317.998L209.082 315.498V313.533Z" fill="white"/>
<path d="M352.048 319.426C352.048 327.76 350.975 335.23 348.83 341.838C346.684 348.445 343.674 354.308 339.799 359.428C335.984 364.487 331.424 368.803 326.119 372.374C320.814 375.946 315.003 378.892 308.685 381.214C302.366 383.476 295.631 385.143 288.478 386.214C281.385 387.286 274.083 387.821 266.573 387.821C263.771 387.821 261.029 387.762 258.347 387.643C255.665 387.464 252.923 387.226 250.121 386.928L252.625 270.675C259.181 268.591 265.917 267.133 272.831 266.3C279.805 265.407 286.72 264.96 293.574 264.96C302.098 264.96 309.936 266.151 317.089 268.532C324.242 270.913 330.411 274.425 335.597 279.068C340.783 283.651 344.806 289.336 347.667 296.122C350.588 302.848 352.048 310.617 352.048 319.426ZM291.25 353.713C294.826 353.177 298.075 352.106 300.995 350.499C303.976 348.832 306.539 346.808 308.685 344.427C310.83 341.987 312.47 339.248 313.602 336.213C314.794 333.117 315.39 329.843 315.39 326.391C315.39 322.998 315.033 319.843 314.317 316.926C313.602 313.95 312.44 311.39 310.83 309.247C309.221 307.045 307.105 305.319 304.482 304.069C301.86 302.759 298.641 302.045 294.826 301.926L291.25 353.713Z" fill="white"/>
<path d="M404.353 264.603L398.094 386.214L360.363 388.178L356.787 267.103L404.353 264.603Z" fill="white"/>
<path d="M523 382.643L478.653 388.357L473.288 368.178H452.903L448.432 388.357L402.833 383.893L438.418 264.96L488.13 262.46L523 382.643ZM470.069 340.856L463.274 309.783L456.658 340.856H470.069Z" fill="white"/>
</svg>
