<svg width="91" height="77" viewBox="0 0 91 77" fill="none" xmlns="http://www.w3.org/2000/svg">
<path d="M26.2667 14.1653C26.2667 15.5194 26.0213 16.8144 25.5304 18.05C25.0395 19.2688 24.3878 20.4198 23.5753 21.5032C22.7797 22.5696 21.8657 23.5598 20.8331 24.4739C19.8175 25.371 18.785 26.1835 17.7355 26.9114H25.7589L25.1495 37.4739L1.38391 36.6614V27.4192C2.28105 27.1145 3.2205 26.7506 4.20227 26.3274C5.20097 25.8873 6.17428 25.3879 7.12219 24.8293C8.08704 24.2708 8.99264 23.6444 9.83899 22.9504C10.7023 22.2564 11.4555 21.5032 12.0988 20.6907C12.7589 19.8612 13.2752 18.9641 13.6476 17.9993C14.0369 17.0344 14.2316 15.9934 14.2316 14.8762C14.2316 14.233 14.1131 13.6659 13.8761 13.175C13.656 12.6842 13.3429 12.2779 12.9366 11.9563C12.5304 11.6178 12.0564 11.3723 11.5148 11.22C10.99 11.0507 10.423 10.9661 9.8136 10.9661C9.30579 10.9661 8.78951 11.0253 8.26477 11.1438C7.74003 11.2454 7.22375 11.3977 6.71594 11.6008C6.20813 11.804 5.72571 12.0579 5.26868 12.3625C4.82857 12.6503 4.43079 12.9804 4.07532 13.3528L1.84094 3.39966C2.46724 2.77336 3.18665 2.24862 3.99915 1.82544C4.81165 1.40226 5.66646 1.06372 6.5636 0.809814C7.46073 0.538981 8.3748 0.34432 9.30579 0.22583C10.2368 0.10734 11.1508 0.0480957 12.048 0.0480957C14.0454 0.0480957 15.9073 0.412028 17.6339 1.13989C19.3605 1.85083 20.8585 2.84106 22.1281 4.1106C23.4145 5.3632 24.4217 6.85278 25.1495 8.57935C25.8943 10.3059 26.2667 12.1679 26.2667 14.1653ZM59.5538 3.50122L49.6515 19.7004L58.589 34.1731L47.9757 37.4739L42.8976 27.6223L37.5148 38.0325L26.546 34.0715L35.8898 19.345L27.3585 4.87231L38.9874 2.07935L43.1515 11.2708L47.5695 2.07935L59.5538 3.50122ZM85.0206 14.1653C85.0206 15.5194 84.7752 16.8144 84.2843 18.05C83.7934 19.2688 83.1417 20.4198 82.3292 21.5032C81.5337 22.5696 80.6196 23.5598 79.587 24.4739C78.5714 25.371 77.5389 26.1835 76.4894 26.9114H84.5128L83.9034 37.4739L60.1378 36.6614V27.4192C61.035 27.1145 61.9744 26.7506 62.9562 26.3274C63.9549 25.8873 64.9282 25.3879 65.8761 24.8293C66.8409 24.2708 67.7465 23.6444 68.5929 22.9504C69.4562 22.2564 70.2094 21.5032 70.8527 20.6907C71.5128 19.8612 72.0291 18.9641 72.4015 17.9993C72.7908 17.0344 72.9855 15.9934 72.9855 14.8762C72.9855 14.233 72.867 13.6659 72.63 13.175C72.41 12.6842 72.0968 12.2779 71.6906 11.9563C71.2843 11.6178 70.8103 11.3723 70.2687 11.22C69.7439 11.0507 69.1769 10.9661 68.5675 10.9661C68.0597 10.9661 67.5434 11.0253 67.0187 11.1438C66.4939 11.2454 65.9777 11.3977 65.4698 11.6008C64.962 11.804 64.4796 12.0579 64.0226 12.3625C63.5825 12.6503 63.1847 12.9804 62.8292 13.3528L60.5948 3.39966C61.2212 2.77336 61.9406 2.24862 62.7531 1.82544C63.5656 1.40226 64.4204 1.06372 65.3175 0.809814C66.2146 0.538981 67.1287 0.34432 68.0597 0.22583C68.9907 0.10734 69.9047 0.0480957 70.8019 0.0480957C72.7993 0.0480957 74.6613 0.412028 76.3878 1.13989C78.1144 1.85083 79.6124 2.84106 80.882 4.1106C82.1684 5.3632 83.1756 6.85278 83.9034 8.57935C84.6482 10.3059 85.0206 12.1679 85.0206 14.1653Z" fill="white"/>
<path d="M24.0665 44.8137L22.7189 66.3176L16.0392 66.6106L16.0978 55.2727L13.0802 64.4133H10.5021L8.18762 56.2395L8.15833 65.7317L1.39075 65.9367L1.68372 45.6926L9.21301 45.3996L12.2013 55.0969L16.1857 44.8137H24.0665ZM41.3517 54.3352C41.3517 55.1848 41.2931 56.0344 41.1759 56.884C39.506 56.9914 37.8458 57.1672 36.1954 57.4113C34.545 57.6457 32.8947 57.8801 31.2443 58.1145C31.4982 58.8176 31.8937 59.3791 32.4308 59.799C32.9777 60.219 33.6271 60.4289 34.379 60.4289C34.7697 60.4289 35.1945 60.3557 35.6534 60.2092C36.1222 60.0627 36.5861 59.882 37.045 59.6672C37.504 59.4426 37.9435 59.2033 38.3634 58.9494C38.7833 58.6955 39.1447 58.466 39.4474 58.261L38.7443 64.9113C38.3634 65.2043 37.9484 65.4533 37.4991 65.6584C37.0597 65.8635 36.6007 66.0295 36.1222 66.1565C35.6437 66.2834 35.1603 66.3762 34.672 66.4348C34.1837 66.4934 33.7052 66.5227 33.2365 66.5227C32.2697 66.5227 31.3859 66.3908 30.5851 66.1272C29.7843 65.8635 29.0568 65.4973 28.4025 65.0285C27.7579 64.55 27.1915 63.9885 26.7032 63.344C26.215 62.6994 25.8097 61.9963 25.4874 61.2346C25.1652 60.4729 24.921 59.6672 24.755 58.8176C24.589 57.968 24.506 57.1086 24.506 56.2395C24.506 55.3313 24.589 54.4231 24.755 53.5149C24.921 52.6067 25.17 51.7326 25.5021 50.8928C25.8439 50.0529 26.2687 49.2766 26.7765 48.5637C27.2941 47.841 27.8947 47.2112 28.5782 46.674C29.2618 46.1369 30.0333 45.717 30.8927 45.4143C31.7618 45.1115 32.7189 44.9602 33.7638 44.9602C34.6329 44.9602 35.424 45.0822 36.1368 45.3264C36.8595 45.5608 37.4991 45.8928 38.0558 46.3225C38.6222 46.7424 39.1105 47.2453 39.5206 47.8313C39.9406 48.4172 40.2823 49.0617 40.546 49.7649C40.8195 50.4582 41.0197 51.1955 41.1466 51.9768C41.2833 52.7483 41.3517 53.5344 41.3517 54.3352ZM35.4923 53.5735C35.4923 53.3 35.463 53.0217 35.4044 52.7385C35.3458 52.4455 35.2482 52.1819 35.1115 51.9475C34.9845 51.7131 34.8136 51.5227 34.5988 51.3762C34.3839 51.2199 34.1154 51.1418 33.7931 51.1418C33.4025 51.1418 33.0558 51.2492 32.7531 51.4641C32.4601 51.6692 32.2062 51.9328 31.9913 52.2551C31.7765 52.5676 31.6007 52.9094 31.464 53.2805C31.3273 53.6516 31.2247 53.9934 31.1564 54.3059L35.4923 53.8957V53.5735ZM58.9152 54.5403C58.9152 55.9074 58.7394 57.133 58.3878 58.217C58.0363 59.301 57.5431 60.2629 56.9083 61.1028C56.2833 61.9328 55.5363 62.6408 54.6671 63.2268C53.798 63.8127 52.8458 64.2961 51.8107 64.677C50.7755 65.0481 49.672 65.3215 48.5001 65.4973C47.338 65.6731 46.1417 65.761 44.9113 65.761C44.4523 65.761 44.0031 65.7512 43.5636 65.7317C43.1241 65.7024 42.6749 65.6633 42.2159 65.6145L42.6261 46.5422C43.7003 46.2004 44.8038 45.9612 45.9366 45.8244C47.0792 45.6779 48.212 45.6047 49.3351 45.6047C50.7316 45.6047 52.0157 45.8 53.1876 46.1906C54.3595 46.5813 55.3702 47.1574 56.2198 47.9192C57.0695 48.6711 57.7286 49.6037 58.1974 50.717C58.6759 51.8205 58.9152 53.0949 58.9152 54.5403ZM48.9542 60.1653C49.5402 60.0774 50.0724 59.9016 50.5509 59.6379C51.0392 59.3645 51.4591 59.0324 51.8107 58.6418C52.1622 58.2414 52.4308 57.7922 52.6163 57.2942C52.8116 56.7863 52.9093 56.2492 52.9093 55.6828C52.9093 55.1262 52.8507 54.6086 52.7335 54.1301C52.6163 53.6418 52.4259 53.2219 52.1622 52.8703C51.8986 52.509 51.5519 52.2258 51.1222 52.0207C50.6925 51.8059 50.1652 51.6887 49.5402 51.6692L48.9542 60.1653ZM67.4845 45.5461L66.4591 65.4973L60.2775 65.8195L59.6915 45.9563L67.4845 45.5461ZM86.923 64.9113L79.6573 65.8488L78.7784 62.5383H75.4386L74.7062 65.8488L67.2355 65.1164L73.0656 45.6047L81.2101 45.1945L86.923 64.9113ZM78.2511 58.0559L77.1378 52.9582L76.0538 58.0559H78.2511Z" fill="white"/>
</svg>
